<?xml version="1.0" encoding="utf-8"?>
<!-- Generator: Adobe Illustrator 27.3.1, SVG Export Plug-In . SVG Version: 6.00 Build 0)  -->
<svg version="1.1" id="Layer_1" xmlns="http://www.w3.org/2000/svg" xmlns:xlink="http://www.w3.org/1999/xlink" x="0px" y="0px"
	 viewBox="0 0 400 400" style="enable-background:new 0 0 400 400;" xml:space="preserve">
<style type="text/css">
	.st0{fill:url(#SVGID_1_);}
	.st1{fill:#4D69C4;}
	.st2{fill:#DDAE8E;}
	.st3{fill:#563017;}
	.st4{fill:#F7C19C;}
	.st5{fill:#FFFFFF;}
	.st6{fill:#512303;}
	.st7{fill:#911212;}
</style>
<g>
	<linearGradient id="SVGID_1_" gradientUnits="userSpaceOnUse" x1="120.4008" y1="310.35" x2="278.9662" y2="35.7066">
		<stop  offset="0" style="stop-color:#BFEAFF"/>
		<stop  offset="0.9581" style="stop-color:#3F66FF"/>
		<stop  offset="1" style="stop-color:#0067BF"/>
	</linearGradient>
	<circle class="st0" cx="199.7" cy="173" r="158.5"/>
	<g id="uuid-a5989194-af20-4bb7-8611-7be91f99e016_00000011733240977127578340000018107812241993935763_">
		<g>
			<path class="st1" d="M358.9,304.2l-11.1,57.3l-50.7,20l-167.6,4c0,0-1.5-18.2-2.1-29c-0.6-10.8,12.3-44.7,17-51.1
				c3.9-5.3,34.1-28.4,44.8-36.5c-0.5,2.1-1.1,3.8-1.7,4.9c-4.7,8.5,18.9,22.9,18.9,22.9s26.1,8.1,27.4,7.4c1.3-0.8,18.2-28,18.2-28
				l-9.8-26.5c-0.2-0.1-0.4-0.3-0.5-0.6c14.1,6.4,38.9,19,43.4,22.2c6,4.3,25.1,24.7,25.1,24.7L358.9,304.2L358.9,304.2z"/>
			<path class="st2" d="M252.2,276.1c0,0-16.8,27.2-18.2,28c-1.3,0.8-27.4-7.4-27.4-7.4s-23.7-14.4-18.9-22.9
				c0.6-1.1,1.2-2.8,1.7-4.9c2.5-10,4-29.6,4.7-40.4c8-0.1,14.7-0.5,17.9-1.4c0.9-0.3,19.7-7.3,30.6-13.1c0.3,3.3,0.6,6.6,0.8,9.9
				c0,0,0.1-0.1,0.3-0.4c-1.6,11.1-3,22.7-1.8,25.5l0,0c0.1,0.4,0.3,0.6,0.5,0.6L252.2,276.1L252.2,276.1z"/>
			<path class="st3" d="M288.3,157.5c-1.3,11.7-40.7,61.1-44.7,66c-0.2,0.3-0.3,0.4-0.3,0.4c-0.3-3.3-0.6-6.6-0.8-9.9
				c-0.4-4.8-0.8-9.6-1.2-14.3c0-0.1,0-0.2,0-0.4c-0.7-3.7-1.5-7.4-2.2-11.1c0-1-0.1-2.6-0.2-4.7l1.3-0.9c0,0,4.7-3.9,9.4-6.3
				c1.3-0.7,2.7-1.3,3.9-1.6c5.5-1.5,10.4-25-7.4-22.9c-1.7,0.2-3.2,0.6-4.6,1c-1.8,0.6-3.3,1.5-4.7,2.4c-2.7-1.5-5.3-3-8-4.5
				c3-8.9,6-17.8,9-26.7c-9.4-3.4-21.7,0-21.7,0c0.3-6,0.6-11.9,0.9-17.9c-9.4,0.9-24.7,15.3-24.7,15.3c-3.4-3.4-5.5-16.2-5.5-16.2
				c-9.4,1.7-21.7,16.2-21.7,16.2c-1.4-6.5-2.8-13.1-4.3-19.6c-6.4,1.3-16.2,16.6-16.2,16.6c-5.5-5.1-6.4-18.4-6.4-18.4
				c-17.5,8.5-20.1,27.8-20.1,27.8c-0.1-0.1-0.3-0.2-0.4-0.3c-23.8-18.5-17.2-65.2,45.6-77.6c67.3-8.5,91.6,43.8,91.6,43.8
				s12.9-2.2,25.6,9.5C289.9,112.2,291.4,133.8,288.3,157.5L288.3,157.5z"/>
			<path class="st4" d="M245.9,151.7c-1.7,0.2-3.2,0.6-4.6,1c-1.8,0.6-3.3,1.5-4.7,2.4c-2.7-1.5-5.3-3-8-4.5c3-8.9,6-17.8,9-26.7
				c-9.4-3.4-21.7,0-21.7,0c0.3-6,0.6-11.9,0.9-17.9c-9.4,0.9-24.7,15.3-24.7,15.3c-3.4-3.4-5.5-16.2-5.5-16.2
				c-9.4,1.7-21.7,16.2-21.7,16.2c-1.4-6.5-2.8-13.1-4.3-19.6c-6.4,1.3-16.2,16.6-16.2,16.6c-5.5-5.1-6.4-18.4-6.4-18.4
				c-17.5,8.5-20.1,27.8-20.1,27.8c-0.1-0.1-0.3-0.2-0.4-0.3c1.5,5.3,3.6,12.2,5.7,17.4c0.2-0.8,0.5-1.5,0.9-2.2
				c1.1-2,2.6-3.3,4.5-3.5c6.1-0.8,7.2,4,8.1,11.2c0.9,7.3-0.9,12.8-5,13.4c-2.6,0.4-5,0.6-6.7-2.7c0-0.1-0.1-0.2-0.1-0.2
				c-1.2,12.8-2.5,29.9-2.3,31.1c0.2,1.7,18,34.4,33.1,35.4c10.3,0.7,26,1.2,38.5,1c8-0.1,14.7-0.5,17.9-1.4
				c0.9-0.3,19.7-7.3,30.6-13.1c-0.4-4.8-0.8-9.6-1.2-14.3c0-0.1,0-0.2,0-0.4c-0.7-3.7-1.5-7.4-2.2-11.1c0-1-0.1-2.6-0.2-4.7
				l1.3-0.9c0,0,4.7-3.9,9.4-6.3c1.3-0.7,2.7-1.3,3.9-1.6C258.8,173,263.7,149.6,245.9,151.7L245.9,151.7z M181,205.6
				c-2.8,2.8-5.7,5.3-8.5,6.9c-4.5,2.3-12.4,0-12.4,0s-2.5-2.4-5.6-6.3c-2.3-2.9-5-6.7-7.2-10.8l3.6-3.4l43.3-2.3
				C194.4,189.8,188.1,198.6,181,205.6L181,205.6z M194.1,164c-3.6,0.2-6.8,0.2-8.7-3.8c-1-2.1-1.7-5.4-1.9-10.3
				c-0.2-4.6,1-8.5,2.9-11.1c1.6-2.2,3.9-3.5,6.4-3.6c8.2-0.3,9.1,5.2,9.4,13.6C202.7,157.3,199.6,163.7,194.1,164z"/>
			<path class="st5" d="M202.3,148.8c-0.4-8.5-1.2-13.9-9.4-13.6c-2.5,0.1-4.7,1.4-6.4,3.6c-2,2.6-3.1,6.5-2.9,11.1
				c0.2,5,0.9,8.2,1.9,10.3c1.9,3.9,5.1,4,8.7,3.8C199.6,163.7,202.7,157.3,202.3,148.8z M191.9,150.7c-0.1,3.9-1.2,7.4-3.4,7.4
				c-2.2,0-3.9-3.3-3.9-7.4s1.7-7.4,3.9-7.4C190.7,143.3,192,146.6,191.9,150.7z"/>
			<path class="st3" d="M191.9,150.7c-0.1,3.9-1.2,7.4-3.4,7.4s-3.9-3.3-3.9-7.4s1.7-7.4,3.9-7.4S192,146.6,191.9,150.7z"/>
			<path class="st5" d="M136.5,150.4c-0.9-7.3-2-12-8.1-11.2c-1.9,0.2-3.4,1.5-4.5,3.5c-0.4,0.7-0.7,1.4-0.9,2.2
				c-0.6,2.1-0.8,4.7-0.5,7.6c0.5,4.1,1.2,6.8,2.1,8.5c0,0.1,0.1,0.2,0.1,0.2c1.7,3.3,4.1,3.1,6.7,2.7
				C135.6,163.2,137.4,157.7,136.5,150.4L136.5,150.4z M125.7,159.2c-0.3,0-0.6-0.1-0.9-0.3c-1.1-0.7-1.6-2.9-1.7-5.6
				c-0.1-2.5,0.3-4.7,1.3-5.6c0.3-0.3,0.6-0.4,1-0.4c1.6-0.1,2.7,2.6,2.8,5.9C128.2,156.6,127.3,159.2,125.7,159.2L125.7,159.2z"/>
			<path class="st3" d="M125.7,159.2c-0.3,0-0.6-0.1-0.9-0.3c-1.1-0.7-1.6-2.9-1.7-5.6c-0.1-2.5,0.3-4.7,1.3-5.6
				c0.3-0.3,0.6-0.4,1-0.4c1.6-0.1,2.7,2.6,2.8,5.9C128.2,156.6,127.3,159.2,125.7,159.2L125.7,159.2z"/>
			<path class="st6" d="M194.4,189.8c0,0-6.2,8.8-13.3,15.8c-6.3-2-16.6-4.1-26.4,0.6c-2.3-2.9-5-6.7-7.2-10.8l3.6-3.4L194.4,189.8
				L194.4,189.8z"/>
			<path class="st7" d="M181,205.6c-2.8,2.8-5.7,5.3-8.5,6.9c-4.5,2.3-12.4,0-12.4,0s-2.5-2.4-5.6-6.3
				C164.4,201.5,174.8,203.6,181,205.6z"/>
		</g>
	</g>
</g>
</svg>
